<!DOCTYPE svg PUBLIC "-//W3C//DTD SVG 1.1//EN" "http://www.w3.org/Graphics/SVG/1.1/DTD/svg11.dtd">
<!-- Uploaded to: SVG Repo, www.svgrepo.com, Transformed by: SVG Repo Mixer Tools -->
<svg height="800px" width="800px" version="1.1" id="Layer_1" xmlns="http://www.w3.org/2000/svg" xmlns:xlink="http://www.w3.org/1999/xlink" viewBox="0 0 511.993 511.993" xml:space="preserve" fill="#000000">
<g id="SVGRepo_bgCarrier" stroke-width="0"/>
<g id="SVGRepo_tracerCarrier" stroke-linecap="round" stroke-linejoin="round"/>
<g id="SVGRepo_iconCarrier"> <polygon style="fill:#C680E3;" points="70.521,313.224 70.521,391.149 256,411.879 441.479,391.149 441.479,313.224 256,292.495 "/> <circle style="fill:#b61616;" cx="139.621" cy="352.19" r="13.594"/> <polygon style="opacity:0.1;enable-background:new ;" points="131.47,391.149 131.47,313.224 286.474,295.901 256,292.495 70.521,313.224 70.521,391.149 256,411.879 286.474,408.473 "/> <g> <circle style="fill:#b61616;" cx="255.996" cy="352.19" r="13.594"/> <circle style="fill:#b61616;" cx="372.384" cy="352.19" r="13.594"/> </g> <path style="fill:#C680E3;" d="M441.479,292.495l50.693-150.076l-10.654-11.414c0,0-131.556,159.811-215.767-15.981h-19.504 c-84.209,175.792-215.767,15.981-215.767,15.981l-10.654,11.414l50.693,150.076H441.479z"/> <g style="opacity:0.1;"> <path d="M30.483,131.004l-10.654,11.416l50.693,150.076h60.949l-36.928-109.32C57.337,163.622,30.483,131.004,30.483,131.004z"/> </g> <g> <circle style="fill:#9244a2;" cx="255.996" cy="106.225" r="26.842"/> <circle style="fill:#9244a2;" cx="26.842" cy="137.382" r="26.842"/> <circle style="fill:#9244a2;" cx="485.151" cy="137.382" r="26.842"/> </g> <ellipse style="fill:#b61616;" cx="255.996" cy="208.717" rx="22.568" ry="33.217"/> <path style="fill:#9244a2;" d="M441.479,271.766H70.521c-11.449,0-20.73,9.281-20.73,20.73l0,0c0,11.449,9.281,20.73,20.73,20.73 h370.958c11.449,0,20.73-9.281,20.73-20.73l0,0C462.209,281.046,452.927,271.766,441.479,271.766z"/> <path style="opacity:0.1;enable-background:new ;" d="M110.74,292.495L110.74,292.495c0-11.449,9.281-20.73,20.73-20.73H70.521 c-11.449,0-20.73,9.281-20.73,20.73l0,0c0,11.449,9.281,20.73,20.73,20.73h60.949C120.021,313.224,110.74,303.944,110.74,292.495z"/> <path style="fill:#9244a2;" d="M441.479,391.149H70.521c-11.449,0-20.73,9.281-20.73,20.73l0,0c0,11.449,9.281,20.73,20.73,20.73 h370.958c11.449,0,20.73-9.281,20.73-20.73l0,0C462.209,400.431,452.927,391.149,441.479,391.149z"/> <path style="opacity:0.1;enable-background:new ;" d="M110.74,411.879L110.74,411.879c0-11.449,9.281-20.73,20.73-20.73H70.521 c-11.449,0-20.73,9.281-20.73,20.73l0,0c0,11.449,9.281,20.73,20.73,20.73h60.949C120.021,432.609,110.74,423.328,110.74,411.879z"/> </g>
</svg>