<!DOCTYPE svg PUBLIC "-//W3C//DTD SVG 1.1//EN" "http://www.w3.org/Graphics/SVG/1.1/DTD/svg11.dtd">
<!-- Uploaded to: SVG Repo, www.svgrepo.com, Transformed by: SVG Repo Mixer Tools -->
<svg height="800px" width="800px" version="1.1" id="Layer_1" xmlns="http://www.w3.org/2000/svg" xmlns:xlink="http://www.w3.org/1999/xlink" viewBox="0 0 512 512" xml:space="preserve" fill="#000000">
<g id="SVGRepo_bgCarrier" stroke-width="0"/>
<g id="SVGRepo_tracerCarrier" stroke-linecap="round" stroke-linejoin="round"/>
<g id="SVGRepo_iconCarrier"> <path style="fill:#C680E3;" d="M331.645,431.293V239.891c0-22.39-18.15-40.539-40.539-40.539h-70.213 c-22.39,0-40.539,18.15-40.539,40.539v191.402H331.645z"/> <g> <path style="fill:#4c243b;" d="M331.645,444.354H180.355c-7.214,0-13.061-5.849-13.061-13.061V239.891 c0-29.556,24.044-53.601,53.601-53.601h70.213c29.555,0,53.599,24.044,53.599,53.601v191.402 C344.707,438.505,338.858,444.354,331.645,444.354z M193.416,418.232h125.168V239.891c0-15.152-12.327-27.478-27.477-27.478 h-70.213c-15.151,0-27.478,12.327-27.478,27.478V418.232z"/> <path style="fill:#4c243b;" d="M54.48,443.646c-7.214,0-13.061-5.849-13.061-13.061V318.258c0-29.556,24.044-53.601,53.601-53.601 h84.628c7.214,0,13.061,5.849,13.061,13.061v152.268c0,7.212-5.848,13.061-13.061,13.061c-7.214,0-13.061-5.849-13.061-13.061 V290.78H95.019c-15.151,0-27.478,12.327-27.478,27.478v112.327C67.541,437.797,61.693,443.646,54.48,443.646z"/> <path style="fill:#4c243b;" d="M332.353,441.905c-7.212,0-13.061-5.849-13.061-13.061v-114.55c0-7.212,5.849-13.061,13.061-13.061 h84.628c29.555,0,53.599,24.044,53.599,53.601v16.38c0,7.212-5.849,13.061-13.061,13.061c-7.212,0-13.061-5.849-13.061-13.061 v-16.38c0-15.152-12.327-27.478-27.477-27.478h-71.566v101.488C345.415,436.056,339.566,441.905,332.353,441.905z"/> <path style="fill:#4c243b;" d="M256,311.896c-7.214,0-13.061-5.849-13.061-13.061v-42.231c0-7.212,5.848-13.061,13.061-13.061 c7.212,0,13.061,5.849,13.061,13.061v42.231C269.061,306.047,263.212,311.896,256,311.896z"/> <path style="fill:#4c243b;" d="M217.616,163.582c-2.708,0-5.403-0.842-7.679-2.495c-4.022-2.922-6.037-7.873-5.196-12.774 l6.17-35.976L184.773,86.86c-3.56-3.47-4.842-8.661-3.306-13.389c1.536-4.728,5.624-8.175,10.544-8.891l36.121-5.248l16.154-32.734 c2.201-4.458,6.741-7.28,11.712-7.28l0,0c4.972,0,9.512,2.823,11.713,7.28l16.153,32.734l36.121,5.248 c4.921,0.716,9.007,4.163,10.544,8.891c1.536,4.728,0.255,9.919-3.304,13.389l-26.138,25.477l6.024,35.127 c0.236,0.981,0.359,2.005,0.359,3.058c0,7.211-5.842,13.056-13.051,13.061c-2.089,0.072-4.191-0.49-6.114-1.499L256,145.096 l-32.308,16.986C221.781,163.086,219.695,163.582,217.616,163.582z M256,117.279c2.088,0,4.176,0.5,6.077,1.499l14.962,7.865 l-2.858-16.66c-0.726-4.237,0.679-8.56,3.756-11.562l12.104-11.797l-16.726-2.429c-4.255-0.619-7.932-3.291-9.835-7.146L256,61.894 l-7.481,15.158c-1.903,3.854-5.58,6.527-9.834,7.146l-16.726,2.429l12.104,11.797c3.079,3.001,4.484,7.323,3.756,11.562 l-2.858,16.66l14.962-7.865C251.824,117.779,253.911,117.279,256,117.279z"/> <path style="fill:#4c243b;" d="M272.49,262.151h-32.98c-7.214,0-13.061-5.849-13.061-13.061s5.848-13.061,13.061-13.061h32.98 c7.212,0,13.061,5.849,13.061,13.061S279.702,262.151,272.49,262.151z"/> <path style="fill:#4c243b;" d="M272.49,317.663h-32.98c-7.214,0-13.061-5.849-13.061-13.061c0-7.212,5.848-13.061,13.061-13.061 h32.98c7.212,0,13.061,5.849,13.061,13.061C285.551,311.814,279.702,317.663,272.49,317.663z"/> <path style="fill:#4c243b;" d="M475.429,492.682H36.571C16.406,492.682,0,476.276,0,456.11c0-20.165,16.406-36.571,36.571-36.571 h438.857c20.165,0,36.571,16.406,36.571,36.571C512,476.276,495.594,492.682,475.429,492.682z M36.571,445.661 c-5.761,0-10.449,4.688-10.449,10.449c0,5.761,4.688,10.449,10.449,10.449h438.857c5.761,0,10.449-4.688,10.449-10.449 c0-5.761-4.688-10.449-10.449-10.449H36.571z"/> </g> </g>
</svg>